<svg xmlns="http://www.w3.org/2000/svg" viewBox="0 0 800 400">
  <rect width="800" height="400" fill="#f0f4f8"/>
  
  <!-- Checklist -->
  <g transform="translate(100,100)">
    <rect x="0" y="0" width="160" height="200" fill="#fff" stroke="#4a5568" stroke-width="2"/>
    <g transform="translate(20,30)">
      <circle cx="10" cy="0" r="8" fill="#48bb78"/>
      <line x1="40" y1="0" x2="120" y2="0" stroke="#4a5568" stroke-width="2"/>
    </g>
    <g transform="translate(20,70)">
      <circle cx="10" cy="0" r="8" fill="#48bb78"/>
      <line x1="40" y1="0" x2="120" y2="0" stroke="#4a5568" stroke-width="2"/>
    </g>
    <g transform="translate(20,110)">
      <circle cx="10" cy="0" r="8" fill="#48bb78"/>
      <line x1="40" y1="0" x2="120" y2="0" stroke="#4a5568" stroke-width="2"/>
    </g>
  </g>

  <!-- Goals/Target -->
  <g transform="translate(350,100)">
    <circle cx="100" cy="100" r="80" fill="none" stroke="#4a5568" stroke-width="2"/>
    <circle cx="100" cy="100" r="60" fill="none" stroke="#4a5568" stroke-width="2"/>
    <circle cx="100" cy="100" r="40" fill="none" stroke="#4a5568" stroke-width="2"/>
    <circle cx="100" cy="100" r="20" fill="#48bb78"/>
    <path d="M100,0 L100,200 M0,100 L200,100" stroke="#4a5568" stroke-width="2"/>
  </g>

  <!-- Bar Chart -->
  <g transform="translate(550,100)">
    <rect x="0" y="120" width="30" height="80" fill="#4299e1"/>
    <rect x="40" y="80" width="30" height="120" fill="#4299e1"/>
    <rect x="80" y="40" width="30" height="160" fill="#48bb78"/>
    <rect x="120" y="0" width="30" height="200" fill="#48bb78"/>
    <line x1="0" y1="200" x2="150" y2="200" stroke="#4a5568" stroke-width="2"/>
  </g>

  <!-- Grid Pattern Background -->
  <g stroke="#e2e8f0" stroke-width="0.5" opacity="0.5">
    <path d="M0,50 L800,50"/>
    <path d="M0,100 L800,100"/>
    <path d="M0,150 L800,150"/>
    <path d="M0,200 L800,200"/>
    <path d="M0,250 L800,250"/>
    <path d="M0,300 L800,300"/>
    <path d="M0,350 L800,350"/>
  </g>
</svg>
